<svg width="20" height="20" viewBox="0 0 20 20" fill="none" xmlns="http://www.w3.org/2000/svg">
<path d="M15 0C17.7614 0 20 2.23858 20 5V15C20 17.7614 17.7614 20 15 20H5C2.23858 20 0 17.7614 0 15V5C0 2.23858 2.23858 0 5 0H15ZM9.76367 4.77441C7.71426 3.51666 5.08016 5.00172 5.0957 7.40625L5.13086 12.7666C5.14654 15.1922 7.84034 16.639 9.87109 15.3125L14.0859 12.5596C15.9685 11.3297 15.9293 8.55807 14.0127 7.38184L9.76367 4.77441ZM7.25195 7.3916C7.24752 6.67929 8.02858 6.23968 8.63574 6.6123L12.8848 9.21973C13.4526 9.56826 13.464 10.3895 12.9062 10.7539L8.69141 13.5068C8.08973 13.8998 7.29182 13.4715 7.28711 12.7529L7.25195 7.3916Z" fill="#9CA2A7"/>
</svg>
